<svg xmlns="http://www.w3.org/2000/svg" viewBox="0 0 32 32">
  <defs>
    <linearGradient id="grad" x1="0%" y1="0%" x2="100%" y2="100%">
      <stop offset="0%" style="stop-color:#c084fc"/>
      <stop offset="100%" style="stop-color:#f472b6"/>
    </linearGradient>
  </defs>
  <rect width="32" height="32" rx="8" fill="url(#grad)"/>
  <path d="M16 8c-1.66 0-3 1.34-3 3v5c0 1.66 1.34 3 3 3s3-1.34 3-3v-5c0-1.66-1.34-3-3-3z" fill="white"/>
  <path d="M21 14v2c0 2.76-2.24 5-5 5s-5-2.24-5-5v-2h-2v2c0 3.53 2.61 6.43 6 6.92V24h-3v2h8v-2h-3v-1.08c3.39-.49 6-3.39 6-6.92v-2h-2z" fill="white"/>
</svg>
